2024-04-29T22:26:14.987Z get-attribute args url=https://m.twitch.tv/gigaohmbiological selector=a[href^="/videos"] attribute=href useProp=true timeout=10000 launchargs={"headless":true,"args":["--no-sandbox","--disable-setuid-sandbox"]}
2024-04-29T22:26:15.237Z get-attribute launched successfully
2024-04-29T22:26:15.862Z get-attribute navigated to url successfully
2024-04-29T22:26:15.973Z get-attribute waited for selector successfully
2024-04-29T22:26:15.997Z get-attribute got attribute value https://m.twitch.tv/videos/2132758155
npm notice 
npm notice New minor version of npm available! 10.5.1 -> 10.6.0
npm notice Changelog: <https://github.com/npm/cli/releases/tag/v10.6.0>
npm notice Run `npm install -g npm@10.6.0` to update!
npm notice 
Looking up video...
Fetching access token...
Fetching playlists...
Fetching playlist...
Joining files...
size=       0kB time=00:00:00.00 bitrate=N/A speed=N/A    size=   79616kB time=01:02:32.61 bitrate= 173.8kbits/s speed=7.51e+03x    size=  159488kB time=02:04:50.79 bitrate= 174.4kbits/s speed=7.49e+03x    size=  173003kB time=02:14:16.23 bitrate= 175.9kbits/s speed=7.41e+03x    
Deleting temporary files...
david_baltimore_and_virology_102_2018_study_hall_28_apr_2024_gigaohm_biological_high_resistance_low_noise_information_brief.m4a
DOWNLOAD_OK
